<svg width="172" height="34" viewBox="0 0 172 34" fill="none" xmlns="http://www.w3.org/2000/svg">
<g clip-path="url(#clip0_25_129)">
<path d="M12.158 10.615C13.9761 10.615 15.4911 10.8832 16.7031 11.4197C17.9404 11.9307 18.862 12.6332 19.468 13.5274C20.0993 14.4215 20.4149 15.4307 20.4149 16.5547C20.4149 17.781 20.1119 18.8285 19.5059 19.6971C18.8999 20.5401 17.9151 21.2427 16.5516 21.8047L15.7941 21.3832C17.5364 21.7153 18.8115 22.3796 19.6195 23.3759C20.4275 24.3723 20.8315 25.4708 20.8315 26.6715C20.8315 27.6679 20.6421 28.5237 20.2634 29.239C19.8846 29.9288 19.3544 30.5036 18.6726 30.9635C17.9909 31.4234 17.1702 31.7682 16.2107 31.9982C15.2512 32.2026 14.2033 32.3047 13.067 32.3047H9.8855V29.6223H12.4989C13.5342 29.6223 14.3801 29.5584 15.0366 29.4307C15.7183 29.3029 16.2486 29.073 16.6273 28.7409C16.9303 28.4854 17.1576 28.1788 17.3091 27.8212C17.4606 27.438 17.5364 26.9653 17.5364 26.4033C17.5364 25.8923 17.4354 25.4325 17.2333 25.0237C17.0313 24.615 16.7157 24.2573 16.2865 23.9507C15.9077 23.6953 15.4027 23.4909 14.7714 23.3376C14.1654 23.1843 13.2312 23.1077 11.9687 23.1077H10.2264V20.4252H11.9308C12.8903 20.4252 13.7362 20.3358 14.4684 20.1569C15.2007 19.9781 15.7815 19.6715 16.2107 19.2372C16.5137 18.9562 16.741 18.6241 16.8925 18.2409C17.044 17.8577 17.1197 17.3978 17.1197 16.8613C17.1197 15.7117 16.6778 14.8431 15.7941 14.2555C14.9103 13.6679 13.6731 13.3741 12.0823 13.3741C10.037 13.3741 8.37048 13.8467 7.08272 14.792C5.79495 15.7117 4.84806 16.9763 4.24205 18.5858C3.63605 20.1697 3.33304 21.9708 3.33304 23.989C3.33304 25.3175 3.40879 26.6715 3.5603 28.0511C3.7118 29.4307 3.95168 30.7336 4.27993 31.9599L1.17414 32.458C0.795385 31.2062 0.505007 29.8011 0.303004 28.2427C0.101001 26.6843 0 25.2409 0 23.9124C0 21.281 0.441881 18.969 1.32564 16.9763C2.23465 14.9836 3.58555 13.4252 5.37832 12.3011C7.19634 11.177 9.45625 10.615 12.158 10.615ZM13.2943 42C12.057 42 10.9334 41.9234 9.92338 41.7701C8.91337 41.6423 7.90335 41.4124 6.89334 41.0803C5.90858 40.7482 4.79756 40.3011 3.5603 39.739L5.34044 37.1715C6.1232 37.5547 6.90596 37.8996 7.68873 38.2062C8.49674 38.5128 9.34262 38.7555 10.2264 38.9343C11.1354 39.1131 12.1328 39.2026 13.2185 39.2026C14.2286 39.2026 15.0492 39.0493 15.6805 38.7427C16.3117 38.4361 16.7788 38.0146 17.0818 37.4781C17.4101 36.9416 17.5742 36.3412 17.5742 35.677C17.5742 34.885 17.2965 34.1442 16.741 33.4544C16.2107 32.739 15.428 32.2026 14.3927 31.8449L17.1576 30.1971C17.9151 30.5292 18.559 30.9635 19.0893 31.5C19.6448 32.0365 20.0614 32.6496 20.3391 33.3394C20.6421 34.0292 20.7936 34.7956 20.7936 35.6387C20.7936 36.8905 20.5159 37.989 19.9604 38.9343C19.4049 39.9051 18.5716 40.6588 17.4606 41.1953C16.3748 41.7318 14.9861 42 13.2943 42Z" fill="white"/>
<path d="M20.2492 0C21.2087 0 22.042 0.10219 22.749 0.30657C23.4812 0.510948 24.1251 0.830291 24.6806 1.2646C25.3876 1.8011 25.9431 2.43978 26.3471 3.18066C26.7511 3.89599 27.0415 4.84124 27.2183 6.01642C27.395 7.16606 27.4834 8.68613 27.4834 10.5766V32.3047H24.2261V11.5347C24.2261 10.2062 24.1882 9.05657 24.1125 8.08577C24.062 7.11496 23.9484 6.29744 23.7716 5.63321C23.6201 4.94343 23.3929 4.39416 23.0898 3.9854C22.7868 3.57664 22.4081 3.2573 21.9536 3.02737C21.5243 2.79744 20.9814 2.68248 20.3249 2.68248C19.7694 2.68248 19.2265 2.81022 18.6963 3.06569C18.1408 3.29562 17.6863 3.67883 17.3328 4.21533C16.9793 4.72628 16.8025 5.42883 16.8025 6.32299C16.8025 6.55292 16.8278 6.79562 16.8783 7.0511C16.9035 7.28102 16.9288 7.51095 16.954 7.74088L13.7725 8.31569C13.722 8.00912 13.6715 7.70255 13.621 7.39599C13.5705 7.06387 13.5452 6.7573 13.5452 6.47628C13.5452 5.02007 13.8609 3.81934 14.4921 2.87409C15.0981 1.90328 15.9188 1.18796 16.954 0.728102C17.964 0.242701 19.0624 0 20.2492 0Z" fill="white"/>
<path d="M55.7211 20.2719C55.7211 12.7993 58.7132 6.74452 63.2583 2.06934L65.5308 3.2573C61.1373 7.81752 58.4481 13.4507 58.4481 20.2719C58.4481 27.1314 61.1373 32.7646 65.5308 37.3248L63.2583 38.5128C58.7132 33.8376 55.7211 27.7828 55.7211 20.2719Z" fill="white"/>
<path d="M76.5494 29.7172C75.4644 29.7172 74.4736 29.4496 73.5769 28.9143C72.6802 28.37 71.9629 27.6442 71.4249 26.737C70.8958 25.8297 70.6313 24.8273 70.6313 23.7295C70.6313 22.6227 70.8958 21.6202 71.4249 20.7221C71.9629 19.8148 72.6802 19.0936 73.5769 18.5583C74.4736 18.014 75.4644 17.7418 76.5494 17.7418C77.6433 17.7418 78.6341 18.014 79.5218 18.5583C80.4185 19.0936 81.1314 19.8148 81.6604 20.7221C82.1984 21.6202 82.4674 22.6227 82.4674 23.7295C82.4674 24.8273 82.1984 25.8297 81.6604 26.737C81.1314 27.6442 80.4185 28.37 79.5218 28.9143C78.6341 29.4496 77.6433 29.7172 76.5494 29.7172Z" fill="white"/>
<path d="M98.0172 27.3902V24.5052H106.101V27.3902H98.0172ZM100.519 31.7448V24.5052H103.599V31.7448H100.519Z" fill="white"/>
<path d="M127.595 29.7172C126.51 29.7172 125.52 29.4496 124.623 28.9143C123.726 28.37 123.009 27.6442 122.471 26.737C121.942 25.8297 121.677 24.8273 121.677 23.7295C121.677 22.6227 121.942 21.6202 122.471 20.7221C123.009 19.8148 123.726 19.0936 124.623 18.5583C125.52 18.014 126.51 17.7418 127.595 17.7418C128.689 17.7418 129.68 18.014 130.568 18.5583C131.465 19.0936 132.177 19.8148 132.706 20.7221C133.245 21.6202 133.514 22.6227 133.514 23.7295C133.514 24.8273 133.245 25.8297 132.706 26.737C132.177 27.6442 131.465 28.37 130.568 28.9143C129.68 29.4496 128.689 29.7172 127.595 29.7172Z" fill="white"/>
<path d="M172 10.5383C171.621 10.9599 171.28 11.3814 171.053 11.7263C168.212 16.4398 162.986 23.1843 156.282 28.0894L153.933 25.9434C159.993 21.6898 164.879 15.4818 166.887 11.8412C163.478 11.8412 146.775 11.8412 144.616 11.8412C143.101 11.8412 141.472 11.9562 140.753 12.0328V8.62226C141.775 8.77555 143.29 8.89051 144.616 8.89051C146.548 8.89051 163.402 8.89051 167.19 8.89051C168.212 8.89051 169.084 8.81387 169.614 8.62226L172 10.5383ZM154.161 28.7409C151.888 26.4416 147.532 22.6478 145.525 21.1916L147.949 19.1989C149.691 20.4635 154.085 24.104 156.812 26.7865C159.198 29.2007 162.152 32.3431 163.781 34.3358L161.016 36.5584C159.615 34.604 156.585 31.2318 154.161 28.7409Z" fill="white"/>
</g>
<defs>
<clipPath id="clip0_25_129">
<rect width="172" height="34" fill="white"/>
</clipPath>
</defs>
</svg>
